<?xml version="1.0" encoding="UTF-8"?>
<svg width="456px" height="90px" viewBox="0 0 456 90" version="1.1" xmlns="http://www.w3.org/2000/svg" xmlns:xlink="http://www.w3.org/1999/xlink">
    <title>a</title>
    <defs>
        <linearGradient x1="50%" y1="2.52525253e-05%" x2="50%" y2="100.000025%" id="linearGradient-1">
            <stop stop-color="#000000" stop-opacity="0.8" offset="6.138%"></stop>
            <stop stop-color="#000000" stop-opacity="0.302" offset="12.12%"></stop>
            <stop stop-color="#000000" stop-opacity="0" offset="21.25%"></stop>
        </linearGradient>
        <linearGradient x1="-50.2195484%" y1="70.9994706%" x2="122.806194%" y2="38.6956703%" id="linearGradient-2">
            <stop stop-color="#000000" stop-opacity="0.8" offset="23.04%"></stop>
            <stop stop-color="#000000" stop-opacity="0" offset="62.13%"></stop>
        </linearGradient>
        <linearGradient x1="50%" y1="1.96675851%" x2="50%" y2="97.6029531%" id="linearGradient-3">
            <stop stop-color="#000000" stop-opacity="0.8" offset="14.17%"></stop>
            <stop stop-color="#000000" stop-opacity="0.4202" offset="47.69%"></stop>
            <stop stop-color="#000000" stop-opacity="0" offset="98.02%"></stop>
        </linearGradient>
        <linearGradient x1="-0.236477987%" y1="50%" x2="99.7634906%" y2="50%" id="linearGradient-4">
            <stop stop-color="#000000" stop-opacity="0.8" offset="9.073%"></stop>
            <stop stop-color="#000000" stop-opacity="0" offset="34.94%"></stop>
        </linearGradient>
        <linearGradient x1="76.3699839%" y1="-8.94376471%" x2="19.9704803%" y2="100.312039%" id="linearGradient-5">
            <stop stop-color="#000000" stop-opacity="0.8" offset="24.05%"></stop>
            <stop stop-color="#000000" stop-opacity="0.2925" offset="48.02%"></stop>
            <stop stop-color="#000000" stop-opacity="0" offset="65.22%"></stop>
        </linearGradient>
        <linearGradient x1="50.0000193%" y1="-6.75675677e-05%" x2="50.0000193%" y2="100.336351%" id="linearGradient-6">
            <stop stop-color="#000000" stop-opacity="0.8" offset="22.28%"></stop>
            <stop stop-color="#000000" stop-opacity="0.2925" offset="54.04%"></stop>
            <stop stop-color="#000000" stop-opacity="0" offset="76.84%"></stop>
        </linearGradient>
    </defs>
    <g id="页面-1" stroke="none" stroke-width="1" fill="none" fill-rule="evenodd">
        <g id="a" transform="translate(1.315344, 1.713600)" fill-rule="nonzero">
            <g id="path118931" transform="translate(0.000000, 1.202400)">
                <path d="M53.44,0 L31.563,0 L24.215,0 L7.515,0 L9.49285095e-14,84.168 L24.048,84.168 L26.72,53.941 L42.084,53.941 C64.963,53.941 77.154,41.249 77.154,24.549 C77.154,12.525 67.301,0 53.44,0 Z M43.42,35.905 L28.39,35.905 L30.06,18.036 L45.591,18.036 C49.766,18.036 53.273,22.378 53.273,26.052 C53.106,29.559 50.1,35.905 43.42,35.905 Z" id="形状" stroke="#3D3D3D" stroke-width="1.67" fill="#3D3D3D"></path>
                <polygon id="路径" fill="url(#linearGradient-1)" opacity="0.45" points="5.845 18.036 29.893 18.036 24.048 84.168 1.89857019e-13 84.168"></polygon>
            </g>
            <g id="path118933" transform="translate(70.401789, 1.202400)">
                <path d="M55.444,0 L43.921,0 L33.066,0 L0,84.168 L25.551,84.168 L30.895,69.305 L56.78,69.305 L59.452,84.168 L84.502,84.168 L66.466,0 C66.466,0 55.444,0 55.444,0 Z M37.241,51.269 L47.929,21.209 L53.44,51.269 L37.241,51.269 Z" id="形状" stroke="#3D3D3D" stroke-width="1.67" fill="#3D3D3D"></path>
                <polygon id="路径" fill="url(#linearGradient-2)" opacity="0.45" points="56.78 69.305 30.895 69.305 37.241 51.269 53.44 51.269"></polygon>
            </g>
            <g id="path118935" transform="translate(161.916888, 0.000000)">
                <path d="M48.4351199,0 C57.9541199,0 66.1371199,3.006 72.3161199,8.016 L70.3121199,30.895 C63.7991199,26.553 54.9481199,22.044 46.2641199,22.044 C46.0971199,22.044 45.7631199,22.044 45.5961199,22.044 C31.4011199,22.378 23.3851199,34.068 23.3851199,45.758 C23.3851199,45.925 23.3851199,46.092 23.3851199,46.259 C23.5521199,52.104 26.8921199,64.796 42.5901199,64.796 C50.9401199,64.796 60.6261199,60.454 68.1411199,56.112 L66.1371199,78.824 C59.1231199,83.834 50.4391199,86.673 40.9201199,86.673 C15.7031199,86.673 -0.3288801,69.138 0.00511990032,46.76 L0.00511990032,46.593 C0.00511990032,45.591 0.00511990032,44.422 0.1721199,43.42 C2.3431199,19.372 22.0491199,0 48.4351199,0 Z" id="路径" stroke="#3D3D3D" stroke-width="1.67" fill="#3D3D3D"></path>
                <path d="M23.5521199,45.591 C23.5521199,45.758 23.5521199,45.925 23.5521199,46.092 L0.1721199,46.593 L0.1721199,46.593 L0.1721199,46.426 L0.1721199,46.426 C1.8421199,29.225 16.0371199,14.529 45.7631199,22.044 L45.7631199,22.044 C31.4011199,22.378 23.5521199,34.068 23.5521199,45.591 Z" id="路径" fill="url(#linearGradient-3)" opacity="0.45"></path>
            </g>
            <g id="path118937" transform="translate(241.654227, 1.202400)">
                <path d="M80.494,0 L52.271,41.249 L72.812,84.168 L45.257,84.168 L36.406,64.963 L35.404,62.625 L27.555,45.591 L24.048,84.168 L0,84.168 L7.515,0 L31.563,0 L28.223,36.573 L41.082,17.702 L53.106,0 C53.106,0 80.494,0 80.494,0 Z" id="路径" stroke="#3D3D3D" stroke-width="1.67" fill="#3D3D3D"></path>
                <polygon id="路径" fill="url(#linearGradient-4)" opacity="0.45" points="52.438 41.249 72.979 84.168 45.257 84.168 36.406 64.963 35.404 62.625 27.555 45.591 28.39 36.573 41.249 17.702 53.273 2.37321274e-14 80.661 2.37321274e-14"></polygon>
            </g>
            <g id="path118939" transform="translate(321.849915, 1.202400)">
                <path d="M36.406,0 L60.454,0 L56.613,42.752 L56.613,42.752 L55.611,54.776 C53.941,72.979 38.41,85.337 23.046,85.337 C7.682,85.337 0,73.313 0,73.313 L1.837,52.605 C4.175,58.784 11.857,62.124 18.704,62.124 C26.052,62.124 31.563,56.78 32.064,50.1 L36.406,0 Z" id="路径" stroke="#3D3D3D" stroke-width="1.67" fill="#3D3D3D"></path>
                <path d="M56.613,42.919 L55.611,54.943 C53.941,73.146 38.41,85.504 23.046,85.504 L18.537,62.291 C40.748,62.291 52.104,58.617 56.613,42.919 Z" id="路径" fill="url(#linearGradient-5)" opacity="0.45"></path>
            </g>
            <g id="path118941" transform="translate(389.401632, 0.000000)">
                <path d="M31.229,25.05 C31.229,35.404 63.46,33.233 63.46,57.949 C63.46,84.669 31.897,86.673 24.716,86.673 C20.875,86.673 8.016,85.504 0,82.164 L2.004,59.118 C10.187,64.128 18.203,67.969 25.05,67.969 C32.064,67.969 34.569,64.629 34.569,61.957 C34.569,48.931 3.34,55.277 3.34,28.223 C3.34,6.847 27.054,0 39.412,0 C51.269,0 56.613,1.336 63.794,3.173 L61.79,26.219 C61.79,26.219 49.098,18.704 41.249,18.704 C35.237,18.704 31.229,21.209 31.229,25.05 Z" id="路径" stroke="#3D3D3D" stroke-width="1.67" fill="#3D3D3D"></path>
                <path d="M58.116,43.42 L8.517,43.42 C8.517,43.42 -7.348,18.704 33.066,18.704 L41.249,18.704 C35.237,18.704 31.229,21.209 31.229,25.05 C31.229,32.732 48.931,33.567 58.116,43.42 Z" id="路径" fill="url(#linearGradient-6)" opacity="0.45"></path>
            </g>
        </g>
    </g>
</svg>